<svg id="LOGO" xmlns="http://www.w3.org/2000/svg" width="291.198" height="33.101" viewBox="0 0 291.198 33.101">
  <path id="Path_1" data-name="Path 1" d="M16.549,33.136a15.982,15.982,0,0,1-11.7-4.83A15.867,15.867,0,0,1,0,16.633a15.944,15.944,0,0,1,4.854-11.7A15.942,15.942,0,0,1,16.549.084,15.663,15.663,0,0,1,25.4,2.673,16.2,16.2,0,0,1,31.3,9.653l-6.61,1.9a8.414,8.414,0,0,0-3.329-3.583,9.349,9.349,0,0,0-4.808-1.271A9.12,9.12,0,0,0,9.685,9.56a9.819,9.819,0,0,0-2.75,7.073,9.736,9.736,0,0,0,2.75,7.049,9.153,9.153,0,0,0,6.864,2.843,9.7,9.7,0,0,0,5.386-1.571,8.962,8.962,0,0,0,3.536-4.531l-8.737.046L16.641,14.6H32.22v2.635a15.469,15.469,0,0,1-4.484,11.419,15.183,15.183,0,0,1-11.187,4.483" transform="translate(0 -0.038)" fill="#fff"/>
  <path id="Path_2" data-name="Path 2" d="M252.543,33.03V.672h23.437V7.1h-16.5v6.61H274.13v6.287H259.477V26.6h16.5V33.03Z" transform="translate(-113.566 -0.302)" fill="#fff"/>
  <path id="Path_3" data-name="Path 3" d="M300.589,33.03V.672h15.024a10.636,10.636,0,0,1,7.35,2.473,7.931,7.931,0,0,1,2.774,6.171,8.546,8.546,0,0,1-1.041,4.137,8.407,8.407,0,0,1-2.8,3.074,8.416,8.416,0,0,1,3.93,3.258,8.543,8.543,0,0,1,1.294,4.554,7.948,7.948,0,0,1-2.8,6.217,11,11,0,0,1-7.558,2.473Zm6.7-18.907h8.09a3.613,3.613,0,0,0,2.7-1.063,3.629,3.629,0,0,0,0-5.085,3.615,3.615,0,0,0-2.7-1.063h-8.09Zm0,12.667h9.015a3.7,3.7,0,0,0,2.7-1.017,3.352,3.352,0,0,0,1.041-2.5,3.431,3.431,0,0,0-1.041-2.519,3.66,3.66,0,0,0-2.7-1.041h-9.015Z" transform="translate(-135.172 -0.302)" fill="#fff"/>
  <path id="Path_4" data-name="Path 4" d="M365.85,33.438a13.475,13.475,0,0,1-9.732-3.814,12.825,12.825,0,0,1-3.952-9.638V.756h6.979v19.23a6.713,6.713,0,0,0,1.989,4.947,6.438,6.438,0,0,0,4.715,1.987,6.517,6.517,0,0,0,4.738-1.987,6.675,6.675,0,0,0,2.011-4.947V.756h6.933v19.23a12.944,12.944,0,0,1-3.906,9.592,13.352,13.352,0,0,1-9.777,3.86" transform="translate(-158.365 -0.34)" fill="#fff"/>
  <path id="Path_5" data-name="Path 5" d="M407.773,33.03V.672H418.59l7.951,26.765L434.492.672h10.863V33.03h-6.7V7.883L431.21,33.03h-9.337l-7.4-25.008V33.03Z" transform="translate(-183.371 -0.302)" fill="#fff"/>
  <path id="Path_6" data-name="Path 6" d="M482.364,33.03V.672h14.283A11.091,11.091,0,0,1,504.761,4a10.711,10.711,0,0,1,3.351,7.859,10.361,10.361,0,0,1-3.305,7.789,11.5,11.5,0,0,1-8.16,3.213l-7.3.046V33.03Zm6.98-16.318,6.841-.046a5.075,5.075,0,0,0,3.744-1.479,4.856,4.856,0,0,0,1.479-3.559,4.395,4.395,0,0,0-1.457-3.375,5.346,5.346,0,0,0-3.767-1.341l-6.841.046Z" transform="translate(-216.914 -0.302)" fill="#fff"/>
  <path id="Path_7" data-name="Path 7" d="M217.56,13.821c-.185-.03-.37-.069-.555-.116l-.648-.162a36.383,36.383,0,0,1-5.477-1.71,2.481,2.481,0,0,1-1.78-2.266A2.563,2.563,0,0,1,210.417,7.3a6.565,6.565,0,0,1,3.536-.832A20.169,20.169,0,0,1,220.1,7.581a26.071,26.071,0,0,1,6.194,2.912V3.421A24.321,24.321,0,0,0,213.954,0a13.1,13.1,0,0,0-8.413,2.681,9.131,9.131,0,0,0-2.188,2.465c.045.043.092.081.136.125a15.377,15.377,0,0,1,4.666,11.208c0,.346-.025.681-.043,1.019a24.232,24.232,0,0,0,4.178,1.408,27.5,27.5,0,0,1,6.633,2.289q1.826,1.087,1.826,2.474a2.407,2.407,0,0,1-1.318,2.2,6.932,6.932,0,0,1-3.49.762,21.306,21.306,0,0,1-9.584-2.7,16.254,16.254,0,0,1-2.813,3.741c-.37.378-.753.727-1.144,1.057A23.683,23.683,0,0,0,215.479,33.1a14.294,14.294,0,0,0,8.645-2.381,8.072,8.072,0,0,0,3.559-7.048q0-7.3-10.123-9.847" transform="translate(-91.017)" fill="#fff"/>
  <path id="Path_8" data-name="Path 8" d="M71.313,3.738a15.539,15.539,0,0,0-4.525,3.233,15.206,15.206,0,0,0-4.611,11.187,15.378,15.378,0,0,0,4.666,11.208,15.8,15.8,0,0,0,4.542,3.192Z" transform="translate(-27.96 -1.681)" fill="#fff"/>
  <path id="Path_9" data-name="Path 9" d="M188.449,32.6a15.54,15.54,0,0,0,4.525-3.233,15.206,15.206,0,0,0,4.611-11.187,15.378,15.378,0,0,0-4.666-11.208,15.8,15.8,0,0,0-4.542-3.192Z" transform="translate(-84.711 -1.699)" fill="#fff"/>
  <path id="Path_10" data-name="Path 10" d="M78.339,16.912A15.921,15.921,0,1,1,94.26,32.833,15.921,15.921,0,0,1,78.339,16.912" transform="translate(-35.228 -0.446)" fill="#fff"/>
  <path id="Path_11" data-name="Path 11" d="M131.08,16.912A15.921,15.921,0,1,1,147,32.833,15.921,15.921,0,0,1,131.08,16.912" transform="translate(-58.945 -0.446)" fill="#fff"/>
</svg>
