<svg width="2782" height="1000" viewBox="0 0 2782 1000" fill="none" xmlns="http://www.w3.org/2000/svg">
<path fill-rule="evenodd" clip-rule="evenodd" d="M618.769 0H323.099L324.09 396.619C338.009 322.116 366.901 250.826 409.41 187.214C462.402 107.916 534.518 43.5999 618.769 0ZM303.833 0H0V479.081C1.41982 412.729 15.1148 347.147 40.4556 285.674C68.5063 217.628 110.229 156.063 163.041 104.793C204.086 62.5129 251.632 27.1422 303.833 0ZM0 515.148V1000H306.016C253.919 973.207 206.319 938.368 164.987 896.727C112.02 845.319 70.0742 783.668 41.704 715.53C15.2261 651.937 1.09036 583.934 0 515.148ZM325.597 1000H618.768C567.823 973.637 520.749 939.41 479.435 898.101C399.216 817.892 345.702 715.973 324.613 606.156L325.597 1000ZM1136.4 1000C1154.92 990.416 1172.95 979.779 1190.41 968.117C1278.14 909.508 1347.53 827.504 1390.82 731.559C1418.54 792.985 1457.33 849.517 1505.9 898.089C1547.22 939.403 1594.3 973.634 1645.25 1000H1136.4ZM2782 1000V0H2473.94C2526.74 26.9131 2574.96 62.0735 2616.77 104.192C2669.73 155.6 2711.68 217.251 2740.05 285.39C2768.42 353.528 2782.62 426.728 2781.79 500.531C2783.13 574.119 2769.35 647.199 2741.3 715.245C2713.25 783.292 2671.52 844.857 2618.71 896.126C2578.13 937.931 2531.19 972.98 2479.68 1000H2782ZM2458.65 1000H2162.88C2181.39 990.421 2199.42 979.79 2216.86 968.135C2309.46 906.276 2381.64 818.349 2424.26 715.475C2439.37 679.014 2450.52 641.256 2457.66 602.838L2458.65 1000ZM2456.15 0H2162.88C2214.02 26.464 2261.07 60.7572 2302.23 101.912C2380.97 180.652 2434.6 280.972 2456.32 390.186C2456.6 391.589 2456.87 392.993 2457.14 394.397L2456.15 0ZM1645.25 0H1136.4C1187.53 26.4613 1234.58 60.7502 1275.74 101.899C1324.1 150.253 1362.98 206.747 1390.82 268.441C1403.53 240.292 1418.58 213.114 1435.89 187.21C1488.88 107.914 1561 43.5992 1645.25 0Z" fill="black"/>
</svg>
