<svg width="2782" height="1126" viewBox="0 0 2782 1126" fill="none" xmlns="http://www.w3.org/2000/svg">
<path fill-rule="evenodd" clip-rule="evenodd" d="M324.613 669.156L325.621 1072.6C265.834 1044.75 211.449 1006.54 164.986 959.727C112.02 908.319 70.0742 846.668 41.7031 778.53C15.2227 714.93 1.08789 646.92 0 578.127V1126H877.553C728.229 1125.99 585.023 1066.68 479.436 961.101C399.217 880.892 345.701 778.973 324.613 669.156ZM877.619 1126L1904.03 1126C1754.7 1125.99 1611.49 1066.67 1505.9 961.089C1457.33 912.517 1418.54 855.985 1390.82 794.559C1347.53 890.504 1278.14 972.508 1190.41 1031.12C1097.82 1092.97 988.971 1125.99 877.619 1126ZM1904.11 1126H2782V0H1904.25C1940.9 0.0118408 1977.63 3.60144 2013.93 10.8207C2123.15 32.5471 2223.48 86.1711 2302.23 164.912C2380.97 243.652 2434.6 343.972 2456.32 453.186C2456.6 454.589 2456.87 455.993 2457.14 457.397L2456.13 54.3164C2515.92 82.1676 2570.3 120.383 2616.77 167.192C2669.73 218.6 2711.68 280.251 2740.05 348.39C2768.42 416.528 2782.62 489.728 2781.79 563.531C2783.13 637.119 2769.35 710.199 2741.3 778.245C2713.25 846.292 2671.53 907.857 2618.71 959.126C2572.68 1006.55 2518.46 1045.28 2458.68 1073.45L2457.66 665.838C2450.52 704.256 2439.37 742.014 2424.26 778.475C2381.64 881.349 2309.46 969.276 2216.86 1031.13C2124.29 1092.98 2015.45 1125.99 1904.11 1126ZM1903.89 0H877.807C914.439 0.0141602 951.158 3.60291 987.436 10.8181C1096.66 32.5416 1196.99 86.1621 1275.74 164.899C1324.1 213.253 1362.98 269.747 1390.82 331.441C1403.53 303.292 1418.58 276.115 1435.89 250.211C1497.76 157.625 1585.71 85.4637 1688.6 42.8527C1757.18 14.4471 1830.36 0.0236816 1903.89 0ZM877.373 0H0V542.104C1.41797 475.744 15.1113 410.155 40.4551 348.674C68.5059 280.628 110.23 219.063 163.041 167.793C209.076 120.373 263.289 81.6439 323.074 53.4678L324.09 459.619C338.01 385.116 366.9 313.826 409.41 250.214C471.281 157.629 559.221 85.4681 662.107 42.8561C730.688 14.4529 803.857 0.0284424 877.373 0Z" fill="black"/>
</svg>
