<svg width="2782" height="1080" viewBox="0 0 2782 1080" fill="none" xmlns="http://www.w3.org/2000/svg">
<path fill-rule="evenodd" clip-rule="evenodd" d="M718.289 0H0V519.081C1.41992 452.729 15.1152 387.147 40.4551 325.674C68.5059 257.628 110.23 196.063 163.041 144.793C209.076 97.3726 263.289 58.644 323.074 30.4677L324.09 436.619C338.01 362.116 366.9 290.826 409.41 227.214C471.281 134.629 559.221 62.4682 662.107 19.8561C680.531 12.2259 699.285 5.60449 718.289 0ZM0 555.148V1080H718.285C628.863 1053.62 546.551 1005.21 479.436 938.101C399.217 857.892 345.701 755.973 324.613 646.156L325.621 1049.6C265.834 1021.75 211.449 983.537 164.986 936.727C112.02 885.319 70.0742 823.668 41.7031 755.53C15.2266 691.937 1.08984 623.934 0 555.148ZM1036.88 1080C1091.1 1064.01 1142.9 1039.86 1190.41 1008.12C1278.14 949.508 1347.53 867.504 1390.82 771.559C1418.54 832.985 1457.33 889.517 1505.9 938.089C1573.02 1005.2 1655.34 1053.62 1744.76 1080H1036.88ZM2782 1080V0H2063.36C2153.33 26.5331 2235.52 75.2109 2302.23 141.912C2380.97 220.652 2434.6 320.972 2456.32 430.186C2456.6 431.589 2456.87 432.993 2457.14 434.397L2456.13 31.3164C2515.92 59.1675 2570.3 97.3826 2616.77 144.192C2669.73 195.6 2711.68 257.251 2740.05 325.39C2768.42 393.528 2782.62 466.728 2781.79 540.531C2783.13 614.119 2769.35 687.199 2741.3 755.245C2713.25 823.292 2671.53 884.856 2618.71 936.126C2572.68 983.547 2518.46 1022.28 2458.68 1050.45L2457.66 642.838C2450.52 681.256 2439.37 719.014 2424.26 755.475C2381.64 858.349 2309.46 946.276 2216.86 1008.13C2169.36 1039.87 2117.57 1064.01 2063.36 1080H2782ZM1744.77 0H1036.88C1126.85 26.5314 1209.03 75.2047 1275.74 141.899C1324.1 190.253 1362.98 246.747 1390.82 308.441C1403.53 280.292 1418.58 253.115 1435.89 227.21C1497.76 134.625 1585.71 62.4638 1688.6 19.8527C1707.02 12.2239 1725.77 5.60367 1744.77 0Z" fill="black"/>
</svg>
